<?xml version="1.0" encoding="UTF-8"?> <svg xmlns="http://www.w3.org/2000/svg" width="283" height="75" viewBox="0 0 283 75" fill="none"><g clip-path="url(#clip0_1736_18164)"><path d="M35.1833 53.0729C35.1833 46.8485 31.507 42.3574 22.2772 41.2938C22.2772 40.0331 22.2772 38.8119 22.3163 37.6694L13.0865 37.6694C13.0865 38.8513 13.1256 40.0725 13.1256 41.2938C4.01319 42.3968 0.336914 46.8485 0.336914 53.0729C0.336914 59.3761 4.0914 63.7883 13.1256 64.852C13.1256 66.0732 13.0865 67.2551 13.0865 68.3976L22.3163 68.3976C22.2772 67.2945 22.2772 66.1126 22.2381 64.8914C31.4679 63.8277 35.1833 59.4155 35.1833 53.0729ZM22.2381 57.0518C22.2381 55.5548 22.2381 54.0972 22.2772 52.6395C22.2772 51.4971 22.3163 50.3152 22.3163 49.1728C24.8584 49.8031 25.9144 51.1425 25.9144 53.0729C25.9144 55.082 24.8193 56.4215 22.2381 57.0518ZM9.6058 53.0729C9.6058 51.1425 10.6618 49.8031 13.2039 49.1728C13.2039 50.3152 13.2039 51.4971 13.2039 52.6395L13.2039 57.0124C10.6618 56.3821 9.6058 55.0426 9.6058 53.0729Z" fill="black"></path><path d="M122.398 68.7915C128.226 68.7915 136.008 67.2945 138.902 60.2428C136.008 58.9821 133.114 57.6427 130.689 56.3427C129.477 59.4549 127.091 60.8731 122.711 60.8731C117.236 60.8731 114.889 57.9185 114.694 54.2153C114.498 50.5516 116.532 46.8485 122.125 46.8485C125.058 46.8485 129.047 47.9515 130.689 51.1819C133.153 49.9213 135.813 48.6212 138.942 47.5182C135.852 41.215 129.634 38.9695 122.398 38.9695C110.079 38.9695 105.19 45.3121 105.19 54.2153C105.19 63.2368 110.235 68.7915 122.398 68.7915Z" fill="black"></path><path d="M175.029 53.0729C175.029 46.8485 171.353 42.3574 162.123 41.2938C162.123 40.0331 162.123 38.8119 162.162 37.6694L152.933 37.6694C152.933 38.8513 152.972 40.0725 152.972 41.2938C143.859 42.3968 140.183 46.8485 140.183 53.0729C140.183 59.3761 143.938 63.7883 152.972 64.852C152.972 66.0732 152.933 67.2551 152.933 68.3976L162.162 68.3976C162.123 67.2945 162.123 66.1126 162.084 64.8914C171.314 63.8277 175.029 59.4155 175.029 53.0729ZM162.084 57.0518C162.084 55.5548 162.084 54.0972 162.123 52.6395C162.123 51.4971 162.162 50.3152 162.162 49.1728C164.705 49.8031 165.76 51.1425 165.76 53.0729C165.76 55.082 164.665 56.4215 162.084 57.0518ZM149.452 53.0729C149.452 51.1425 150.508 49.8031 153.05 49.1728C153.05 50.3152 153.05 51.4971 153.05 52.6395V57.0124C150.508 56.3821 149.452 55.0426 149.452 53.0729Z" fill="black"></path><path d="M194.66 68.7915C207.214 68.7915 212.102 62.9216 212.102 53.8608C212.102 44.9575 207.214 38.9695 194.66 38.9695C182.145 38.9695 177.256 44.9575 177.256 53.8608C177.256 62.8822 182.301 68.7915 194.66 68.7915ZM194.66 60.7549C188.832 60.7549 186.525 58.4306 186.525 53.8608C186.525 49.3698 188.793 47.0061 194.66 47.0061C200.565 47.0061 202.833 49.3698 202.833 53.8608C202.833 58.47 200.565 60.7549 194.66 60.7549Z" fill="black"></path><path d="M224.287 39.8362V39.7968L214.666 39.7968C215.057 49.3304 215.057 58.864 214.666 68.3976L224.287 68.3976L224.287 61.464L232.421 61.464C243.528 61.464 246.305 56.8942 246.305 50.4334C246.305 44.3666 243.528 39.8362 232.421 39.8362L224.287 39.8362ZM224.287 53.8608V47.6364L229.684 47.6364C236.137 47.6364 237.466 48.1879 237.466 50.7092C237.466 53.2699 235.98 53.8608 229.684 53.8608L224.287 53.8608Z" fill="black"></path><path d="M279.322 39.8362L251.798 39.7968C251.798 46.3363 251.954 54.0972 251.485 56.6184C250.898 59.8094 249.764 60.9519 247.574 61.3852H245.618L245.618 75.0159L254.887 75.0159V69.1854L273.23 69.1854V74.8977L282.495 74.8977V61.3852H279.322L279.322 39.8362ZM260.597 59.6912C261.419 55.3184 261.262 51.4577 261.34 47.5182L269.427 47.5182L269.427 61.3852L260.167 61.3852C260.363 60.8337 260.48 60.2822 260.597 59.6912Z" fill="black"></path><path fill-rule="evenodd" clip-rule="evenodd" d="M41.7413 64.8368C44.5572 67.4369 48.9504 68.7369 54.9211 68.7369C60.97 68.7369 65.3894 67.4369 68.1792 64.8368C70.969 62.2367 72.3639 58.5599 72.3639 53.8062C72.3639 49.1313 70.9559 45.4807 68.1401 42.8544C65.3503 40.2281 60.9439 38.9149 54.9211 38.9149C48.9244 38.9149 44.5181 40.2281 41.7022 42.8544C38.9124 45.4807 37.5175 49.1313 37.5175 53.8062C37.5175 58.5336 38.9254 62.2105 41.7413 64.8368ZM61.1786 59.0458C59.901 60.1488 57.8152 60.7003 54.9211 60.7003C52.0531 60.7003 49.9803 60.1357 48.7028 59.0064C47.4252 57.877 46.7864 56.1437 46.7864 53.8062C46.7864 51.495 47.4252 49.7748 48.7028 48.6455C49.9803 47.5161 52.0531 46.9515 54.9211 46.9515C57.8152 46.9515 59.901 47.5161 61.1786 48.6455C62.4562 49.7748 63.095 51.495 63.095 53.8062C63.095 56.1699 62.4562 57.9164 61.1786 59.0458ZM85.0024 68.343L85.0024 56.877L87.056 56.877C90.1343 60.8428 92.0787 63.8543 94.7747 68.4154L106.774 68.4154C102.562 62.6381 99.9901 59.2379 95.1506 53.9923V52.5699L106.268 39.7422L94.4768 39.7422C94.2875 40.0131 94.0958 40.2895 93.9003 40.5714L93.8981 40.5746L93.8971 40.576C92.046 43.245 89.8525 46.4075 86.1757 50.0637C85.6543 50.0637 85.2632 50.0506 85.0024 50.0243L85.0024 39.7422L75.2642 39.7422C75.4728 44.8373 75.5771 49.6041 75.5771 54.0426C75.5771 58.4811 75.4728 63.2479 75.2642 68.343L85.0024 68.343Z" fill="black"></path></g><g clip-path="url(#clip1_1736_18164)"><path d="M164.072 3.31219L189.624 15.2211L186.539 0L233.27 33.7296L170.663 33.7297L164.072 3.31219Z" fill="#FF9900"></path><path fill-rule="evenodd" clip-rule="evenodd" d="M216.96 33.7296C216.966 32.8326 216.914 31.9072 216.8 30.965C215.956 24.0034 212.007 18.7599 207.98 19.2534C203.953 19.7469 201.372 25.7905 202.217 32.7522C202.266 33.0817 202.322 33.4077 202.384 33.7296L216.96 33.7296Z" fill="white"></path><path fill-rule="evenodd" clip-rule="evenodd" d="M209.058 33.7296C209.093 33.1527 209.077 32.5447 209.001 31.9209C208.607 28.6721 206.77 26.2244 204.897 26.4539C203.025 26.6834 201.826 29.503 202.22 32.7518C202.254 33.0892 202.304 33.4156 202.366 33.7296L209.058 33.7296Z" fill="black"></path><path fill-rule="evenodd" clip-rule="evenodd" d="M201.67 33.7296C201.646 33.4062 201.613 33.0803 201.574 32.7524C200.729 25.7907 196.78 20.5472 192.753 21.0407C188.928 21.5095 186.259 27.1951 186.724 33.7296L201.67 33.7296Z" fill="white"></path><path fill-rule="evenodd" clip-rule="evenodd" d="M193.643 33.7298C193.651 33.2789 193.627 32.812 193.569 32.3359C193.175 29.0871 191.338 26.6395 189.466 26.869C187.66 27.0903 186.353 30.5682 186.616 33.7298L193.643 33.7298Z" fill="black"></path><path d="M240.617 20.1416L206.128 33.7298H233.918L240.617 20.1416Z" fill="#FF9900"></path><path d="M240.616 20.1416L232.02 23.5308L237.296 26.9008L240.616 20.1416Z" fill="black"></path></g><defs><clipPath id="clip0_1736_18164"><rect width="283" height="42.0814" fill="white" transform="translate(0 32.9185)"></rect></clipPath><clipPath id="clip1_1736_18164"><rect width="76.4774" height="33.5973" fill="white" transform="translate(164.073)"></rect></clipPath></defs></svg> 