<?xml version="1.0" encoding="UTF-8"?>
<svg id="Layer_2" data-name="Layer 2" xmlns="http://www.w3.org/2000/svg" viewBox="0 0 363.91 363.91">
  <defs>
    <style>
      .cls-1 {
        fill: #fff;
      }

      .cls-1, .cls-2 {
        stroke-width: 0px;
      }

      .cls-2 {
        fill: #00009d;
      }
    </style>
  </defs>
  <g id="_Слой_1" data-name="Слой 1">
    <g>
      <rect class="cls-1" width="363.91" height="363.91" rx="30.64" ry="30.64"/>
      <g>
        <path class="cls-2" d="m125.17,42.36h-10.66v-5.33c0-3.02,2.31-5.33,5.33-5.33h0c3.02,0,5.33,2.31,5.33,5.33v5.33Z"/>
        <path class="cls-2" d="m145.88,42.36h-10.66v-5.33c0-3.02,2.31-5.33,5.33-5.33h0c3.02,0,5.33,2.31,5.33,5.33v5.33Z"/>
        <path class="cls-2" d="m176.93,42.36h-10.66v-5.33c0-3.02,2.31-5.33,5.33-5.33h0c3.02,0,5.33,2.31,5.33,5.33v5.33Z"/>
        <path class="cls-2" d="m197.64,42.36h-10.66v-5.33c0-3.02,2.31-5.33,5.33-5.33h5.33v10.66Z"/>
        <rect class="cls-2" x="197.33" y="31.7" width="10.66" height="10.66"/>
        <path class="cls-2" d="m213.01,42.36h-5.33v-10.66h5.33c3.02,0,5.33,2.31,5.33,5.33h0c0,3.02-2.31,5.33-5.33,5.33Z"/>
        <rect class="cls-2" x="114.51" y="42.05" width="10.66" height="10.66"/>
        <rect class="cls-2" x="124.86" y="42.05" width="10.66" height="10.66"/>
        <rect class="cls-2" x="135.22" y="42.05" width="10.66" height="10.66"/>
        <path class="cls-2" d="m156.23,52.71h-10.66v-10.66h5.33c3.02,0,5.33,2.31,5.33,5.33v5.33Z"/>
        <path class="cls-2" d="m171.6,52.71h0c-3.02,0-5.33-2.31-5.33-5.33v-5.33h10.66v5.33c0,3.02-2.31,5.33-5.33,5.33Z"/>
        <rect class="cls-2" x="186.98" y="42.05" width="10.66" height="10.66"/>
        <circle class="cls-2" cx="244.07" cy="47.38" r="5.33"/>
        <path class="cls-2" d="m125.17,63.06h-5.33c-3.02,0-5.33-2.31-5.33-5.33v-5.33h10.66v10.66Z"/>
        <rect class="cls-2" x="124.86" y="52.4" width="10.66" height="10.66"/>
        <rect class="cls-2" x="135.22" y="52.4" width="10.66" height="10.66"/>
        <rect class="cls-2" x="145.57" y="52.4" width="10.66" height="10.66"/>
        <path class="cls-2" d="m166.58,63.06h-10.66v-10.66h5.33c3.02,0,5.33,2.31,5.33,5.33v5.33Z"/>
        <path class="cls-2" d="m192.31,63.06h0c-3.02,0-5.33-2.31-5.33-5.33v-5.33h10.66v5.33c0,3.02-2.31,5.33-5.33,5.33Z"/>
        <rect class="cls-2" x="135.22" y="62.75" width="10.66" height="10.66"/>
        <rect class="cls-2" x="145.57" y="62.75" width="10.66" height="10.66"/>
        <rect class="cls-2" x="155.92" y="62.75" width="10.66" height="10.66"/>
        <rect class="cls-2" x="166.27" y="62.75" width="10.66" height="10.66"/>
        <path class="cls-2" d="m187.29,73.41h-10.66v-10.66h5.33c3.02,0,5.33,2.31,5.33,5.33v5.33Z"/>
        <path class="cls-2" d="m218.34,73.41h-10.66v-5.33c0-3.02,2.31-5.33,5.33-5.33h5.33v10.66Z"/>
        <path class="cls-2" d="m228.69,73.41h-10.66v-10.66h5.33c3.02,0,5.33,2.31,5.33,5.33v5.33Z"/>
        <path class="cls-2" d="m145.88,83.77h-5.33c-3.02,0-5.33-2.31-5.33-5.33v-5.33h10.66v10.66Z"/>
        <rect class="cls-2" x="145.57" y="73.1" width="10.66" height="10.66"/>
        <rect class="cls-2" x="155.92" y="73.1" width="10.66" height="10.66"/>
        <rect class="cls-2" x="166.27" y="73.1" width="10.66" height="10.66"/>
        <path class="cls-2" d="m181.95,83.77h-5.33v-10.66h10.66v5.33c0,3.02-2.31,5.33-5.33,5.33Z"/>
        <path class="cls-2" d="m207.99,83.77h-10.66v-5.33c0-3.02,2.31-5.33,5.33-5.33h5.33v10.66Z"/>
        <rect class="cls-2" x="207.68" y="73.1" width="10.66" height="10.66"/>
        <rect class="cls-2" x="218.03" y="73.1" width="10.66" height="10.66"/>
        <rect class="cls-2" x="228.38" y="73.1" width="10.66" height="10.66"/>
        <path class="cls-2" d="m249.4,83.77h-10.66v-10.66h5.33c3.02,0,5.33,2.31,5.33,5.33v5.33Z"/>
        <path class="cls-2" d="m125.17,94.12h-10.66v-5.33c0-3.02,2.31-5.33,5.33-5.33h0c3.02,0,5.33,2.31,5.33,5.33v5.33Z"/>
        <rect class="cls-2" x="155.92" y="83.46" width="10.66" height="10.66"/>
        <path class="cls-2" d="m197.64,94.12h-5.33c-3.02,0-5.33-2.31-5.33-5.33h0c0-3.02,2.31-5.33,5.33-5.33h5.33v10.66Z"/>
        <rect class="cls-2" x="197.33" y="83.46" width="10.66" height="10.66"/>
        <path class="cls-2" d="m213.01,94.12h-5.33v-10.66h10.66v5.33c0,3.02-2.31,5.33-5.33,5.33Z"/>
        <rect class="cls-2" x="238.74" y="83.46" width="10.66" height="10.66"/>
        <rect class="cls-2" x="114.51" y="93.81" width="10.66" height="10.66"/>
        <path class="cls-2" d="m145.88,104.47h-10.66v-5.33c0-3.02,2.31-5.33,5.33-5.33h0c3.02,0,5.33,2.31,5.33,5.33v5.33Z"/>
        <rect class="cls-2" x="155.92" y="93.81" width="10.66" height="10.66"/>
        <circle class="cls-2" cx="181.95" cy="99.14" r="5.33"/>
        <path class="cls-2" d="m202.66,104.47h0c-3.02,0-5.33-2.31-5.33-5.33v-5.33h10.66v5.33c0,3.02-2.31,5.33-5.33,5.33Z"/>
        <path class="cls-2" d="m228.69,104.47h-10.66v-5.33c0-3.02,2.31-5.33,5.33-5.33h0c3.02,0,5.33,2.31,5.33,5.33v5.33Z"/>
        <path class="cls-2" d="m244.07,104.47h0c-3.02,0-5.33-2.31-5.33-5.33v-5.33h10.66v5.33c0,3.02-2.31,5.33-5.33,5.33Z"/>
        <rect class="cls-2" x="114.51" y="104.16" width="10.66" height="10.66"/>
        <rect class="cls-2" x="124.86" y="104.16" width="10.66" height="10.66"/>
        <rect class="cls-2" x="135.22" y="104.16" width="10.66" height="10.66"/>
        <rect class="cls-2" x="145.57" y="104.16" width="10.66" height="10.66"/>
        <rect class="cls-2" x="155.92" y="104.16" width="10.66" height="10.66"/>
        <path class="cls-2" d="m171.6,114.82h-5.33v-10.66h5.33c3.02,0,5.33,2.31,5.33,5.33h0c0,3.02-2.31,5.33-5.33,5.33Z"/>
        <path class="cls-2" d="m218.34,114.82h-5.33c-3.02,0-5.33-2.31-5.33-5.33h0c0-3.02,2.31-5.33,5.33-5.33h5.33v10.66Z"/>
        <path class="cls-2" d="m223.36,114.82h-5.33v-10.66h10.66v5.33c0,3.02-2.31,5.33-5.33,5.33Z"/>
        <path class="cls-2" d="m63.06,125.17h-5.33c-3.02,0-5.33-2.31-5.33-5.33h0c0-3.02,2.31-5.33,5.33-5.33h5.33v10.66Z"/>
        <rect class="cls-2" x="62.75" y="114.51" width="10.66" height="10.66"/>
        <path class="cls-2" d="m83.77,125.17h-10.66v-10.66h5.33c3.02,0,5.33,2.31,5.33,5.33v5.33Z"/>
        <circle class="cls-2" cx="99.14" cy="119.84" r="5.33"/>
        <path class="cls-2" d="m119.84,125.17h0c-3.02,0-5.33-2.31-5.33-5.33v-5.33h10.66v5.33c0,3.02-2.31,5.33-5.33,5.33Z"/>
        <rect class="cls-2" x="135.22" y="114.51" width="10.66" height="10.66"/>
        <rect class="cls-2" x="145.57" y="114.51" width="10.66" height="10.66"/>
        <path class="cls-2" d="m207.99,125.17h-10.66v-5.33c0-3.02,2.31-5.33,5.33-5.33h0c3.02,0,5.33,2.31,5.33,5.33v5.33Z"/>
        <path class="cls-2" d="m259.75,125.17h-10.66v-5.33c0-3.02,2.31-5.33,5.33-5.33h5.33v10.66Z"/>
        <rect class="cls-2" x="259.44" y="114.51" width="10.66" height="10.66"/>
        <path class="cls-2" d="m280.45,125.17h-10.66v-10.66h5.33c3.02,0,5.33,2.31,5.33,5.33v5.33Z"/>
        <path class="cls-2" d="m311.51,125.17h-5.33c-3.02,0-5.33-2.31-5.33-5.33h0c0-3.02,2.31-5.33,5.33-5.33h5.33v10.66Z"/>
        <rect class="cls-2" x="311.2" y="114.51" width="10.66" height="10.66"/>
        <path class="cls-2" d="m332.21,125.17h-10.66v-10.66h5.33c3.02,0,5.33,2.31,5.33,5.33v5.33Z"/>
        <rect class="cls-2" x="73.1" y="124.86" width="10.66" height="10.66"/>
        <path class="cls-2" d="m94.12,135.53h-10.66v-10.66h5.33c3.02,0,5.33,2.31,5.33,5.33v5.33Z"/>
        <path class="cls-2" d="m135.53,135.53h-5.33c-3.02,0-5.33-2.31-5.33-5.33h0c0-3.02,2.31-5.33,5.33-5.33h5.33v10.66Z"/>
        <rect class="cls-2" x="135.22" y="124.86" width="10.66" height="10.66"/>
        <rect class="cls-2" x="145.57" y="124.86" width="10.66" height="10.66"/>
        <path class="cls-2" d="m176.93,135.53h-10.66v-5.33c0-3.02,2.31-5.33,5.33-5.33h5.33v10.66Z"/>
        <rect class="cls-2" x="176.62" y="124.86" width="10.66" height="10.66"/>
        <rect class="cls-2" x="186.98" y="124.86" width="10.66" height="10.66"/>
        <path class="cls-2" d="m202.66,135.53h-5.33v-10.66h10.66v5.33c0,3.02-2.31,5.33-5.33,5.33Z"/>
        <path class="cls-2" d="m228.69,135.53h-10.66v-5.33c0-3.02,2.31-5.33,5.33-5.33h0c3.02,0,5.33,2.31,5.33,5.33v5.33Z"/>
        <path class="cls-2" d="m249.4,135.53h-5.33c-3.02,0-5.33-2.31-5.33-5.33h0c0-3.02,2.31-5.33,5.33-5.33h5.33v10.66Z"/>
        <rect class="cls-2" x="249.09" y="124.86" width="10.66" height="10.66"/>
        <rect class="cls-2" x="259.44" y="124.86" width="10.66" height="10.66"/>
        <rect class="cls-2" x="269.79" y="124.86" width="10.66" height="10.66"/>
        <rect class="cls-2" x="280.14" y="124.86" width="10.66" height="10.66"/>
        <path class="cls-2" d="m295.83,135.53h-5.33v-10.66h5.33c3.02,0,5.33,2.31,5.33,5.33h0c0,3.02-2.31,5.33-5.33,5.33Z"/>
        <path class="cls-2" d="m326.88,135.53h0c-3.02,0-5.33-2.31-5.33-5.33v-5.33h10.66v5.33c0,3.02-2.31,5.33-5.33,5.33Z"/>
        <path class="cls-2" d="m83.77,145.88h-5.33c-3.02,0-5.33-2.31-5.33-5.33v-5.33h10.66v10.66Z"/>
        <rect class="cls-2" x="83.46" y="135.22" width="10.66" height="10.66"/>
        <path class="cls-2" d="m99.14,145.88h-5.33v-10.66h5.33c3.02,0,5.33,2.31,5.33,5.33h0c0,3.02-2.31,5.33-5.33,5.33Z"/>
        <circle class="cls-2" cx="119.84" cy="140.55" r="5.33"/>
        <path class="cls-2" d="m156.23,145.88h-5.33c-3.02,0-5.33-2.31-5.33-5.33v-5.33h10.66v10.66Z"/>
        <rect class="cls-2" x="155.92" y="135.22" width="10.66" height="10.66"/>
        <rect class="cls-2" x="166.27" y="135.22" width="10.66" height="10.66"/>
        <rect class="cls-2" x="176.62" y="135.22" width="10.66" height="10.66"/>
        <rect class="cls-2" x="218.03" y="135.22" width="10.66" height="10.66"/>
        <path class="cls-2" d="m239.05,145.88h-10.66v-10.66h5.33c3.02,0,5.33,2.31,5.33,5.33v5.33Z"/>
        <rect class="cls-2" x="259.44" y="135.22" width="10.66" height="10.66"/>
        <circle class="cls-2" cx="306.18" cy="140.55" r="5.33"/>
        <path class="cls-2" d="m52.71,156.23h-10.66v-5.33c0-3.02,2.31-5.33,5.33-5.33h0c3.02,0,5.33,2.31,5.33,5.33v5.33Z"/>
        <circle class="cls-2" cx="68.08" cy="150.9" r="5.33"/>
        <path class="cls-2" d="m88.79,156.23h0c-3.02,0-5.33-2.31-5.33-5.33v-5.33h10.66v5.33c0,3.02-2.31,5.33-5.33,5.33Z"/>
        <path class="cls-2" d="m114.82,156.23h-10.66v-5.33c0-3.02,2.31-5.33,5.33-5.33h0c3.02,0,5.33,2.31,5.33,5.33v5.33Z"/>
        <path class="cls-2" d="m145.88,156.23h-10.66v-5.33c0-3.02,2.31-5.33,5.33-5.33h0c3.02,0,5.33,2.31,5.33,5.33v5.33Z"/>
        <path class="cls-2" d="m181.95,156.23h0c-3.02,0-5.33-2.31-5.33-5.33v-5.33h10.66v5.33c0,3.02-2.31,5.33-5.33,5.33Z"/>
        <circle class="cls-2" cx="202.66" cy="150.9" r="5.33"/>
        <rect class="cls-2" x="218.03" y="145.57" width="10.66" height="10.66"/>
        <rect class="cls-2" x="228.38" y="145.57" width="10.66" height="10.66"/>
        <path class="cls-2" d="m244.07,156.23h-5.33v-10.66h5.33c3.02,0,5.33,2.31,5.33,5.33h0c0,3.02-2.31,5.33-5.33,5.33Z"/>
        <path class="cls-2" d="m270.1,156.23h-5.33c-3.02,0-5.33-2.31-5.33-5.33v-5.33h10.66v10.66Z"/>
        <path class="cls-2" d="m275.12,156.23h-5.33v-10.66h5.33c3.02,0,5.33,2.31,5.33,5.33h0c0,3.02-2.31,5.33-5.33,5.33Z"/>
        <circle class="cls-2" cx="295.83" cy="150.9" r="5.33"/>
        <path class="cls-2" d="m321.86,156.23h-10.66v-5.33c0-3.02,2.31-5.33,5.33-5.33h0c3.02,0,5.33,2.31,5.33,5.33v5.33Z"/>
        <path class="cls-2" d="m42.36,166.58h-5.33c-3.02,0-5.33-2.31-5.33-5.33h0c0-3.02,2.31-5.33,5.33-5.33h5.33v10.66Z"/>
        <rect class="cls-2" x="42.05" y="155.92" width="10.66" height="10.66"/>
        <path class="cls-2" d="m57.73,166.58h-5.33v-10.66h5.33c3.02,0,5.33,2.31,5.33,5.33h0c0,3.02-2.31,5.33-5.33,5.33Z"/>
        <path class="cls-2" d="m104.47,166.58h-5.33c-3.02,0-5.33-2.31-5.33-5.33h0c0-3.02,2.31-5.33,5.33-5.33h5.33v10.66Z"/>
        <rect class="cls-2" x="104.16" y="155.92" width="10.66" height="10.66"/>
        <rect class="cls-2" x="114.51" y="155.92" width="10.66" height="10.66"/>
        <rect class="cls-2" x="124.86" y="155.92" width="10.66" height="10.66"/>
        <rect class="cls-2" x="135.22" y="155.92" width="10.66" height="10.66"/>
        <rect class="cls-2" x="145.57" y="155.92" width="10.66" height="10.66"/>
        <path class="cls-2" d="m166.58,166.58h-10.66v-10.66h5.33c3.02,0,5.33,2.31,5.33,5.33v5.33Z"/>
        <path class="cls-2" d="m197.64,166.58h-10.66v-5.33c0-3.02,2.31-5.33,5.33-5.33h0c3.02,0,5.33,2.31,5.33,5.33v5.33Z"/>
        <rect class="cls-2" x="218.03" y="155.92" width="10.66" height="10.66"/>
        <rect class="cls-2" x="228.38" y="155.92" width="10.66" height="10.66"/>
        <path class="cls-2" d="m259.75,166.58h-10.66v-5.33c0-3.02,2.31-5.33,5.33-5.33h0c3.02,0,5.33,2.31,5.33,5.33v5.33Z"/>
        <path class="cls-2" d="m311.51,166.58h-5.33c-3.02,0-5.33-2.31-5.33-5.33h0c0-3.02,2.31-5.33,5.33-5.33h5.33v10.66Z"/>
        <rect class="cls-2" x="311.2" y="155.92" width="10.66" height="10.66"/>
        <path class="cls-2" d="m332.21,166.58h-10.66v-10.66h5.33c3.02,0,5.33,2.31,5.33,5.33v5.33Z"/>
        <circle class="cls-2" cx="68.08" cy="171.6" r="5.33"/>
        <rect class="cls-2" x="104.16" y="166.27" width="10.66" height="10.66"/>
        <rect class="cls-2" x="114.51" y="166.27" width="10.66" height="10.66"/>
        <path class="cls-2" d="m140.55,176.93h0c-3.02,0-5.33-2.31-5.33-5.33v-5.33h10.66v5.33c0,3.02-2.31,5.33-5.33,5.33Z"/>
        <path class="cls-2" d="m166.58,176.93h-5.33c-3.02,0-5.33-2.31-5.33-5.33v-5.33h10.66v10.66Z"/>
        <path class="cls-2" d="m171.6,176.93h-5.33v-10.66h5.33c3.02,0,5.33,2.31,5.33,5.33h0c0,3.02-2.31,5.33-5.33,5.33Z"/>
        <rect class="cls-2" x="186.98" y="166.27" width="10.66" height="10.66"/>
        <path class="cls-2" d="m218.34,176.93h-10.66v-5.33c0-3.02,2.31-5.33,5.33-5.33h5.33v10.66Z"/>
        <rect class="cls-2" x="218.03" y="166.27" width="10.66" height="10.66"/>
        <rect class="cls-2" x="228.38" y="166.27" width="10.66" height="10.66"/>
        <rect class="cls-2" x="238.74" y="166.27" width="10.66" height="10.66"/>
        <rect class="cls-2" x="249.09" y="166.27" width="10.66" height="10.66"/>
        <path class="cls-2" d="m264.77,176.93h-5.33v-10.66h5.33c3.02,0,5.33,2.31,5.33,5.33h0c0,3.02-2.31,5.33-5.33,5.33Z"/>
        <path class="cls-2" d="m290.81,176.93h-5.33c-3.02,0-5.33-2.31-5.33-5.33h0c0-3.02,2.31-5.33,5.33-5.33h5.33v10.66Z"/>
        <path class="cls-2" d="m295.83,176.93h-5.33v-10.66h5.33c3.02,0,5.33,2.31,5.33,5.33h0c0,3.02-2.31,5.33-5.33,5.33Z"/>
        <path class="cls-2" d="m321.86,176.93h-5.33c-3.02,0-5.33-2.31-5.33-5.33v-5.33h10.66v10.66Z"/>
        <path class="cls-2" d="m326.88,176.93h-5.33v-10.66h10.66v5.33c0,3.02-2.31,5.33-5.33,5.33Z"/>
        <circle class="cls-2" cx="37.03" cy="181.95" r="5.33"/>
        <path class="cls-2" d="m104.47,187.29h-5.33c-3.02,0-5.33-2.31-5.33-5.33h0c0-3.02,2.31-5.33,5.33-5.33h5.33v10.66Z"/>
        <rect class="cls-2" x="104.16" y="176.62" width="10.66" height="10.66"/>
        <rect class="cls-2" x="114.51" y="176.62" width="10.66" height="10.66"/>
        <path class="cls-2" d="m130.19,187.29h-5.33v-10.66h5.33c3.02,0,5.33,2.31,5.33,5.33h0c0,3.02-2.31,5.33-5.33,5.33Z"/>
        <rect class="cls-2" x="186.98" y="176.62" width="10.66" height="10.66"/>
        <rect class="cls-2" x="197.33" y="176.62" width="10.66" height="10.66"/>
        <rect class="cls-2" x="207.68" y="176.62" width="10.66" height="10.66"/>
        <rect class="cls-2" x="238.74" y="176.62" width="10.66" height="10.66"/>
        <path class="cls-2" d="m254.42,187.29h-5.33v-10.66h10.66v5.33c0,3.02-2.31,5.33-5.33,5.33Z"/>
        <path class="cls-2" d="m63.06,197.64h-10.66v-5.33c0-3.02,2.31-5.33,5.33-5.33h0c3.02,0,5.33,2.31,5.33,5.33v5.33Z"/>
        <path class="cls-2" d="m83.77,197.64h-10.66v-5.33c0-3.02,2.31-5.33,5.33-5.33h0c3.02,0,5.33,2.31,5.33,5.33v5.33Z"/>
        <rect class="cls-2" x="104.16" y="186.98" width="10.66" height="10.66"/>
        <path class="cls-2" d="m119.84,197.64h-5.33v-10.66h10.66v5.33c0,3.02-2.31,5.33-5.33,5.33Z"/>
        <path class="cls-2" d="m145.88,197.64h-10.66v-5.33c0-3.02,2.31-5.33,5.33-5.33h5.33v10.66Z"/>
        <rect class="cls-2" x="145.57" y="186.98" width="10.66" height="10.66"/>
        <rect class="cls-2" x="155.92" y="186.98" width="10.66" height="10.66"/>
        <path class="cls-2" d="m171.6,197.64h-5.33v-10.66h5.33c3.02,0,5.33,2.31,5.33,5.33h0c0,3.02-2.31,5.33-5.33,5.33Z"/>
        <path class="cls-2" d="m197.64,197.64h-5.33c-3.02,0-5.33-2.31-5.33-5.33v-5.33h10.66v10.66Z"/>
        <rect class="cls-2" x="197.33" y="186.98" width="10.66" height="10.66"/>
        <path class="cls-2" d="m213.01,197.64h-5.33v-10.66h10.66v5.33c0,3.02-2.31,5.33-5.33,5.33Z"/>
        <path class="cls-2" d="m244.07,197.64h0c-3.02,0-5.33-2.31-5.33-5.33v-5.33h10.66v5.33c0,3.02-2.31,5.33-5.33,5.33Z"/>
        <circle class="cls-2" cx="264.77" cy="192.31" r="5.33"/>
        <path class="cls-2" d="m301.16,197.64h-10.66v-5.33c0-3.02,2.31-5.33,5.33-5.33h0c3.02,0,5.33,2.31,5.33,5.33v5.33Z"/>
        <path class="cls-2" d="m57.73,207.99h0c-3.02,0-5.33-2.31-5.33-5.33v-5.33h10.66v5.33c0,3.02-2.31,5.33-5.33,5.33Z"/>
        <path class="cls-2" d="m83.77,207.99h-5.33c-3.02,0-5.33-2.31-5.33-5.33v-5.33h10.66v10.66Z"/>
        <rect class="cls-2" x="83.46" y="197.33" width="10.66" height="10.66"/>
        <rect class="cls-2" x="93.81" y="197.33" width="10.66" height="10.66"/>
        <path class="cls-2" d="m109.49,207.99h-5.33v-10.66h10.66v5.33c0,3.02-2.31,5.33-5.33,5.33Z"/>
        <path class="cls-2" d="m140.55,207.99h0c-3.02,0-5.33-2.31-5.33-5.33v-5.33h10.66v5.33c0,3.02-2.31,5.33-5.33,5.33Z"/>
        <rect class="cls-2" x="155.92" y="197.33" width="10.66" height="10.66"/>
        <path class="cls-2" d="m202.66,207.99h0c-3.02,0-5.33-2.31-5.33-5.33v-5.33h10.66v5.33c0,3.02-2.31,5.33-5.33,5.33Z"/>
        <rect class="cls-2" x="290.5" y="197.33" width="10.66" height="10.66"/>
        <path class="cls-2" d="m306.18,207.99h-5.33v-10.66h5.33c3.02,0,5.33,2.31,5.33,5.33h0c0,3.02-2.31,5.33-5.33,5.33Z"/>
        <path class="cls-2" d="m42.36,218.34h-10.66v-5.33c0-3.02,2.31-5.33,5.33-5.33h5.33v10.66Z"/>
        <path class="cls-2" d="m47.38,218.34h-5.33v-10.66h5.33c3.02,0,5.33,2.31,5.33,5.33h0c0,3.02-2.31,5.33-5.33,5.33Z"/>
        <circle class="cls-2" cx="68.08" cy="213.01" r="5.33"/>
        <path class="cls-2" d="m88.79,218.34h0c-3.02,0-5.33-2.31-5.33-5.33v-5.33h10.66v5.33c0,3.02-2.31,5.33-5.33,5.33Z"/>
        <path class="cls-2" d="m135.53,218.34h-10.66v-5.33c0-3.02,2.31-5.33,5.33-5.33h0c3.02,0,5.33,2.31,5.33,5.33v5.33Z"/>
        <path class="cls-2" d="m156.23,218.34h-10.66v-5.33c0-3.02,2.31-5.33,5.33-5.33h5.33v10.66Z"/>
        <rect class="cls-2" x="155.92" y="207.68" width="10.66" height="10.66"/>
        <rect class="cls-2" x="166.27" y="207.68" width="10.66" height="10.66"/>
        <path class="cls-2" d="m187.29,218.34h-10.66v-10.66h5.33c3.02,0,5.33,2.31,5.33,5.33v5.33Z"/>
        <circle class="cls-2" cx="223.36" cy="213.01" r="5.33"/>
        <path class="cls-2" d="m259.75,218.34h-5.33c-3.02,0-5.33-2.31-5.33-5.33h0c0-3.02,2.31-5.33,5.33-5.33h5.33v10.66Z"/>
        <path class="cls-2" d="m270.1,218.34h-10.66v-10.66h5.33c3.02,0,5.33,2.31,5.33,5.33v5.33Z"/>
        <path class="cls-2" d="m290.81,218.34h-10.66v-5.33c0-3.02,2.31-5.33,5.33-5.33h5.33v10.66Z"/>
        <path class="cls-2" d="m295.83,218.34h-5.33v-10.66h10.66v5.33c0,3.02-2.31,5.33-5.33,5.33Z"/>
        <path class="cls-2" d="m321.86,218.34h-5.33c-3.02,0-5.33-2.31-5.33-5.33h0c0-3.02,2.31-5.33,5.33-5.33h5.33v10.66Z"/>
        <path class="cls-2" d="m326.88,218.34h-5.33v-10.66h5.33c3.02,0,5.33,2.31,5.33,5.33h0c0,3.02-2.31,5.33-5.33,5.33Z"/>
        <rect class="cls-2" x="31.7" y="218.03" width="10.66" height="10.66"/>
        <circle class="cls-2" cx="78.43" cy="223.36" r="5.33"/>
        <circle class="cls-2" cx="99.14" cy="223.36" r="5.33"/>
        <path class="cls-2" d="m125.17,228.69h-10.66v-5.33c0-3.02,2.31-5.33,5.33-5.33h5.33v10.66Z"/>
        <rect class="cls-2" x="124.86" y="218.03" width="10.66" height="10.66"/>
        <rect class="cls-2" x="135.22" y="218.03" width="10.66" height="10.66"/>
        <rect class="cls-2" x="145.57" y="218.03" width="10.66" height="10.66"/>
        <path class="cls-2" d="m176.93,228.69h-5.33c-3.02,0-5.33-2.31-5.33-5.33v-5.33h10.66v10.66Z"/>
        <rect class="cls-2" x="176.62" y="218.03" width="10.66" height="10.66"/>
        <rect class="cls-2" x="186.98" y="218.03" width="10.66" height="10.66"/>
        <rect class="cls-2" x="197.33" y="218.03" width="10.66" height="10.66"/>
        <path class="cls-2" d="m213.01,228.69h-5.33v-10.66h5.33c3.02,0,5.33,2.31,5.33,5.33h0c0,3.02-2.31,5.33-5.33,5.33Z"/>
        <path class="cls-2" d="m249.4,228.69h-10.66v-5.33c0-3.02,2.31-5.33,5.33-5.33h0c3.02,0,5.33,2.31,5.33,5.33v5.33Z"/>
        <rect class="cls-2" x="259.44" y="218.03" width="10.66" height="10.66"/>
        <rect class="cls-2" x="269.79" y="218.03" width="10.66" height="10.66"/>
        <path class="cls-2" d="m285.47,228.69h-5.33v-10.66h10.66v5.33c0,3.02-2.31,5.33-5.33,5.33Z"/>
        <circle class="cls-2" cx="306.18" cy="223.36" r="5.33"/>
        <rect class="cls-2" x="31.7" y="228.38" width="10.66" height="10.66"/>
        <circle class="cls-2" cx="68.08" cy="233.71" r="5.33"/>
        <circle class="cls-2" cx="88.79" cy="233.71" r="5.33"/>
        <rect class="cls-2" x="114.51" y="228.38" width="10.66" height="10.66"/>
        <path class="cls-2" d="m130.19,239.05h-5.33v-10.66h10.66v5.33c0,3.02-2.31,5.33-5.33,5.33Z"/>
        <path class="cls-2" d="m150.9,239.05h0c-3.02,0-5.33-2.31-5.33-5.33v-5.33h10.66v5.33c0,3.02-2.31,5.33-5.33,5.33Z"/>
        <rect class="cls-2" x="176.62" y="228.38" width="10.66" height="10.66"/>
        <path class="cls-2" d="m202.66,239.05h0c-3.02,0-5.33-2.31-5.33-5.33v-5.33h10.66v5.33c0,3.02-2.31,5.33-5.33,5.33Z"/>
        <rect class="cls-2" x="238.74" y="228.38" width="10.66" height="10.66"/>
        <rect class="cls-2" x="259.44" y="228.38" width="10.66" height="10.66"/>
        <rect class="cls-2" x="269.79" y="228.38" width="10.66" height="10.66"/>
        <circle class="cls-2" cx="295.83" cy="233.71" r="5.33"/>
        <path class="cls-2" d="m37.03,249.4h0c-3.02,0-5.33-2.31-5.33-5.33v-5.33h10.66v5.33c0,3.02-2.31,5.33-5.33,5.33Z"/>
        <circle class="cls-2" cx="57.73" cy="244.07" r="5.33"/>
        <circle class="cls-2" cx="99.14" cy="244.07" r="5.33"/>
        <rect class="cls-2" x="114.51" y="238.74" width="10.66" height="10.66"/>
        <rect class="cls-2" x="176.62" y="238.74" width="10.66" height="10.66"/>
        <path class="cls-2" d="m192.31,249.4h-5.33v-10.66h5.33c3.02,0,5.33,2.31,5.33,5.33h0c0,3.02-2.31,5.33-5.33,5.33Z"/>
        <circle class="cls-2" cx="213.01" cy="244.07" r="5.33"/>
        <path class="cls-2" d="m239.05,249.4h-5.33c-3.02,0-5.33-2.31-5.33-5.33h0c0-3.02,2.31-5.33,5.33-5.33h5.33v10.66Z"/>
        <rect class="cls-2" x="238.74" y="238.74" width="10.66" height="10.66"/>
        <rect class="cls-2" x="249.09" y="238.74" width="10.66" height="10.66"/>
        <rect class="cls-2" x="259.44" y="238.74" width="10.66" height="10.66"/>
        <rect class="cls-2" x="269.79" y="238.74" width="10.66" height="10.66"/>
        <path class="cls-2" d="m290.81,249.4h-10.66v-10.66h5.33c3.02,0,5.33,2.31,5.33,5.33v5.33Z"/>
        <circle class="cls-2" cx="306.18" cy="244.07" r="5.33"/>
        <path class="cls-2" d="m125.17,259.75h-5.33c-3.02,0-5.33-2.31-5.33-5.33v-5.33h10.66v10.66Z"/>
        <rect class="cls-2" x="124.86" y="249.09" width="10.66" height="10.66"/>
        <rect class="cls-2" x="135.22" y="249.09" width="10.66" height="10.66"/>
        <path class="cls-2" d="m150.9,259.75h-5.33v-10.66h5.33c3.02,0,5.33,2.31,5.33,5.33h0c0,3.02-2.31,5.33-5.33,5.33Z"/>
        <path class="cls-2" d="m176.93,259.75h-5.33c-3.02,0-5.33-2.31-5.33-5.33h0c0-3.02,2.31-5.33,5.33-5.33h5.33v10.66Z"/>
        <rect class="cls-2" x="176.62" y="249.09" width="10.66" height="10.66"/>
        <rect class="cls-2" x="238.74" y="249.09" width="10.66" height="10.66"/>
        <rect class="cls-2" x="280.14" y="249.09" width="10.66" height="10.66"/>
        <path class="cls-2" d="m295.83,259.75h-5.33v-10.66h5.33c3.02,0,5.33,2.31,5.33,5.33h0c0,3.02-2.31,5.33-5.33,5.33Z"/>
        <path class="cls-2" d="m321.86,259.75h-5.33c-3.02,0-5.33-2.31-5.33-5.33h0c0-3.02,2.31-5.33,5.33-5.33h5.33v10.66Z"/>
        <path class="cls-2" d="m326.88,259.75h-5.33v-10.66h5.33c3.02,0,5.33,2.31,5.33,5.33h0c0,3.02-2.31,5.33-5.33,5.33Z"/>
        <path class="cls-2" d="m140.55,270.1h0c-3.02,0-5.33-2.31-5.33-5.33v-5.33h10.66v5.33c0,3.02-2.31,5.33-5.33,5.33Z"/>
        <rect class="cls-2" x="176.62" y="259.44" width="10.66" height="10.66"/>
        <path class="cls-2" d="m239.05,270.1h-10.66v-5.33c0-3.02,2.31-5.33,5.33-5.33h5.33v10.66Z"/>
        <rect class="cls-2" x="238.74" y="259.44" width="10.66" height="10.66"/>
        <circle class="cls-2" cx="264.77" cy="264.77" r="5.33"/>
        <rect class="cls-2" x="280.14" y="259.44" width="10.66" height="10.66"/>
        <path class="cls-2" d="m135.53,280.45h-10.66v-5.33c0-3.02,2.31-5.33,5.33-5.33h0c3.02,0,5.33,2.31,5.33,5.33v5.33Z"/>
        <path class="cls-2" d="m156.23,280.45h-5.33c-3.02,0-5.33-2.31-5.33-5.33h0c0-3.02,2.31-5.33,5.33-5.33h5.33v10.66Z"/>
        <rect class="cls-2" x="155.92" y="269.79" width="10.66" height="10.66"/>
        <rect class="cls-2" x="166.27" y="269.79" width="10.66" height="10.66"/>
        <rect class="cls-2" x="176.62" y="269.79" width="10.66" height="10.66"/>
        <path class="cls-2" d="m207.99,280.45h-10.66v-5.33c0-3.02,2.31-5.33,5.33-5.33h0c3.02,0,5.33,2.31,5.33,5.33v5.33Z"/>
        <path class="cls-2" d="m228.69,280.45h-5.33c-3.02,0-5.33-2.31-5.33-5.33h0c0-3.02,2.31-5.33,5.33-5.33h5.33v10.66Z"/>
        <rect class="cls-2" x="228.38" y="269.79" width="10.66" height="10.66"/>
        <rect class="cls-2" x="238.74" y="269.79" width="10.66" height="10.66"/>
        <rect class="cls-2" x="280.14" y="269.79" width="10.66" height="10.66"/>
        <path class="cls-2" d="m301.16,280.45h-10.66v-10.66h5.33c3.02,0,5.33,2.31,5.33,5.33v5.33Z"/>
        <path class="cls-2" d="m321.86,280.45h-5.33c-3.02,0-5.33-2.31-5.33-5.33h0c0-3.02,2.31-5.33,5.33-5.33h5.33v10.66Z"/>
        <path class="cls-2" d="m332.21,280.45h-10.66v-10.66h5.33c3.02,0,5.33,2.31,5.33,5.33v5.33Z"/>
        <path class="cls-2" d="m125.17,290.81h-10.66v-5.33c0-3.02,2.31-5.33,5.33-5.33h5.33v10.66Z"/>
        <path class="cls-2" d="m130.19,290.81h-5.33v-10.66h10.66v5.33c0,3.02-2.31,5.33-5.33,5.33Z"/>
        <rect class="cls-2" x="155.92" y="280.14" width="10.66" height="10.66"/>
        <rect class="cls-2" x="176.62" y="280.14" width="10.66" height="10.66"/>
        <rect class="cls-2" x="197.33" y="280.14" width="10.66" height="10.66"/>
        <path class="cls-2" d="m218.34,290.81h-10.66v-10.66h5.33c3.02,0,5.33,2.31,5.33,5.33v5.33Z"/>
        <path class="cls-2" d="m249.4,290.81h-5.33c-3.02,0-5.33-2.31-5.33-5.33v-5.33h10.66v10.66Z"/>
        <rect class="cls-2" x="249.09" y="280.14" width="10.66" height="10.66"/>
        <rect class="cls-2" x="259.44" y="280.14" width="10.66" height="10.66"/>
        <rect class="cls-2" x="269.79" y="280.14" width="10.66" height="10.66"/>
        <rect class="cls-2" x="280.14" y="280.14" width="10.66" height="10.66"/>
        <rect class="cls-2" x="290.5" y="280.14" width="10.66" height="10.66"/>
        <path class="cls-2" d="m306.18,290.81h-5.33v-10.66h5.33c3.02,0,5.33,2.31,5.33,5.33h0c0,3.02-2.31,5.33-5.33,5.33Z"/>
        <path class="cls-2" d="m326.88,290.81h0c-3.02,0-5.33-2.31-5.33-5.33v-5.33h10.66v5.33c0,3.02-2.31,5.33-5.33,5.33Z"/>
        <rect class="cls-2" x="114.51" y="290.5" width="10.66" height="10.66"/>
        <path class="cls-2" d="m166.58,301.16h-5.33c-3.02,0-5.33-2.31-5.33-5.33v-5.33h10.66v10.66Z"/>
        <rect class="cls-2" x="166.27" y="290.5" width="10.66" height="10.66"/>
        <rect class="cls-2" x="176.62" y="290.5" width="10.66" height="10.66"/>
        <rect class="cls-2" x="197.33" y="290.5" width="10.66" height="10.66"/>
        <rect class="cls-2" x="207.68" y="290.5" width="10.66" height="10.66"/>
        <path class="cls-2" d="m228.69,301.16h-10.66v-10.66h5.33c3.02,0,5.33,2.31,5.33,5.33v5.33Z"/>
        <path class="cls-2" d="m275.12,301.16h0c-3.02,0-5.33-2.31-5.33-5.33v-5.33h10.66v5.33c0,3.02-2.31,5.33-5.33,5.33Z"/>
        <rect class="cls-2" x="290.5" y="290.5" width="10.66" height="10.66"/>
        <path class="cls-2" d="m119.84,311.51h0c-3.02,0-5.33-2.31-5.33-5.33v-5.33h10.66v5.33c0,3.02-2.31,5.33-5.33,5.33Z"/>
        <path class="cls-2" d="m176.93,311.51h-5.33c-3.02,0-5.33-2.31-5.33-5.33v-5.33h10.66v10.66Z"/>
        <rect class="cls-2" x="176.62" y="300.85" width="10.66" height="10.66"/>
        <path class="cls-2" d="m202.66,311.51h0c-3.02,0-5.33-2.31-5.33-5.33v-5.33h10.66v5.33c0,3.02-2.31,5.33-5.33,5.33Z"/>
        <path class="cls-2" d="m228.69,311.51h-5.33c-3.02,0-5.33-2.31-5.33-5.33v-5.33h10.66v10.66Z"/>
        <path class="cls-2" d="m233.71,311.51h-5.33v-10.66h5.33c3.02,0,5.33,2.31,5.33,5.33h0c0,3.02-2.31,5.33-5.33,5.33Z"/>
        <path class="cls-2" d="m270.1,311.51h-10.66v-5.33c0-3.02,2.31-5.33,5.33-5.33h0c3.02,0,5.33,2.31,5.33,5.33v5.33Z"/>
        <path class="cls-2" d="m290.81,311.51h-10.66v-5.33c0-3.02,2.31-5.33,5.33-5.33h5.33v10.66Z"/>
        <rect class="cls-2" x="290.5" y="300.85" width="10.66" height="10.66"/>
        <path class="cls-2" d="m321.86,311.51h-10.66v-5.33c0-3.02,2.31-5.33,5.33-5.33h0c3.02,0,5.33,2.31,5.33,5.33v5.33Z"/>
        <path class="cls-2" d="m135.53,321.86h-10.66v-5.33c0-3.02,2.31-5.33,5.33-5.33h0c3.02,0,5.33,2.31,5.33,5.33v5.33Z"/>
        <path class="cls-2" d="m156.23,321.86h-10.66v-5.33c0-3.02,2.31-5.33,5.33-5.33h5.33v10.66Z"/>
        <path class="cls-2" d="m166.58,321.86h-10.66v-10.66h5.33c3.02,0,5.33,2.31,5.33,5.33v5.33Z"/>
        <path class="cls-2" d="m181.95,321.86h0c-3.02,0-5.33-2.31-5.33-5.33v-5.33h10.66v5.33c0,3.02-2.31,5.33-5.33,5.33Z"/>
        <circle class="cls-2" cx="244.07" cy="316.53" r="5.33"/>
        <rect class="cls-2" x="259.44" y="311.2" width="10.66" height="10.66"/>
        <rect class="cls-2" x="280.14" y="311.2" width="10.66" height="10.66"/>
        <path class="cls-2" d="m295.83,321.86h-5.33v-10.66h10.66v5.33c0,3.02-2.31,5.33-5.33,5.33Z"/>
        <path class="cls-2" d="m316.53,321.86h0c-3.02,0-5.33-2.31-5.33-5.33v-5.33h10.66v5.33c0,3.02-2.31,5.33-5.33,5.33Z"/>
        <path class="cls-2" d="m130.19,332.21h0c-3.02,0-5.33-2.31-5.33-5.33v-5.33h10.66v5.33c0,3.02-2.31,5.33-5.33,5.33Z"/>
        <path class="cls-2" d="m156.23,332.21h-5.33c-3.02,0-5.33-2.31-5.33-5.33v-5.33h10.66v10.66Z"/>
        <path class="cls-2" d="m161.25,332.21h-5.33v-10.66h10.66v5.33c0,3.02-2.31,5.33-5.33,5.33Z"/>
        <path class="cls-2" d="m207.99,332.21h-5.33c-3.02,0-5.33-2.31-5.33-5.33h0c0-3.02,2.31-5.33,5.33-5.33h5.33v10.66Z"/>
        <path class="cls-2" d="m213.01,332.21h-5.33v-10.66h5.33c3.02,0,5.33,2.31,5.33,5.33h0c0,3.02-2.31,5.33-5.33,5.33Z"/>
        <circle class="cls-2" cx="233.71" cy="326.88" r="5.33"/>
        <path class="cls-2" d="m264.77,332.21h0c-3.02,0-5.33-2.31-5.33-5.33v-5.33h10.66v5.33c0,3.02-2.31,5.33-5.33,5.33Z"/>
        <path class="cls-2" d="m285.47,332.21h0c-3.02,0-5.33-2.31-5.33-5.33v-5.33h10.66v5.33c0,3.02-2.31,5.33-5.33,5.33Z"/>
        <circle class="cls-2" cx="306.18" cy="326.88" r="5.33"/>
        <path class="cls-2" d="m54.99,104.16h26.4c12.42,0,22.77-10.35,22.77-22.77v-26.4c0-12.94-10.35-23.29-23.29-23.29h-26.4c-12.42,0-22.77,10.35-22.77,22.77v26.4c0,12.94,10.35,23.29,23.29,23.29Zm38.82-47.62v22.77c0,7.76-6.73,14.49-14.49,14.49h-22.77c-8.28,0-14.49-6.21-14.49-14.49v-22.77c0-7.76,6.73-14.49,14.49-14.49h22.77c8.28,0,14.49,6.21,14.49,14.49Z"/>
        <path class="cls-2" d="m282.73,104.16h26.4c12.42,0,22.77-10.35,22.77-22.77v-26.4c0-12.94-10.35-23.29-23.29-23.29h-26.4c-12.42,0-22.77,10.35-22.77,22.77v26.4c0,12.94,10.35,23.29,23.29,23.29Zm38.82-47.62v22.77c0,7.76-6.73,14.49-14.49,14.49h-22.77c-8.28,0-14.49-6.21-14.49-14.49v-22.77c0-7.76,6.73-14.49,14.49-14.49h22.77c8.28,0,14.49,6.21,14.49,14.49Z"/>
        <path class="cls-2" d="m54.99,331.9h26.4c12.42,0,22.77-10.35,22.77-22.77v-26.4c0-12.94-10.35-23.29-23.29-23.29h-26.4c-12.42,0-22.77,10.35-22.77,22.77v26.4c0,12.94,10.35,23.29,23.29,23.29Zm38.82-47.62v22.77c0,7.76-6.73,14.49-14.49,14.49h-22.77c-8.28,0-14.49-6.21-14.49-14.49v-22.77c0-7.76,6.73-14.49,14.49-14.49h22.77c8.28,0,14.49,6.21,14.49,14.49Z"/>
        <path class="cls-2" d="m83.46,61.2v13.98c0,4.14-4.14,8.28-8.8,8.28h-13.46c-5.18,0-8.8-3.62-8.8-8.8v-13.46c0-4.66,4.14-8.8,8.8-8.8h13.98c4.66,0,8.28,3.62,8.28,8.8Z"/>
        <path class="cls-2" d="m311.2,61.2v13.98c0,4.14-4.14,8.28-8.8,8.28h-13.46c-5.18,0-8.8-3.62-8.8-8.8v-13.46c0-4.66,4.14-8.8,8.8-8.8h13.98c4.66,0,8.28,3.62,8.28,8.8Z"/>
        <path class="cls-2" d="m83.46,288.94v13.98c0,4.14-4.14,8.28-8.8,8.28h-13.46c-5.18,0-8.8-3.62-8.8-8.8v-13.46c0-4.66,4.14-8.8,8.8-8.8h13.98c4.66,0,8.28,3.62,8.28,8.8Z"/>
      </g>
    </g>
  </g>
</svg>