<svg width="123" height="19" viewBox="0 0 123 19" fill="none" xmlns="http://www.w3.org/2000/svg">
<g clip-path="url(#clip0_3381_362)">
<path d="M72.7885 17.5074V17.0742C72.4452 16.9758 72.3206 16.9036 72.0407 16.792C71.5028 16.523 71.1158 16.4727 70.4291 16.1445C68.7585 15.3504 67.4006 13.4472 67.0158 13.55C66.6331 13.6529 66.1127 13.4297 65.765 13.5347C65.4195 13.6397 64.9341 13.4582 64.2475 13.5479C63.5609 13.6375 63.4975 13.3553 63.047 13.2941C62.5944 13.235 62.2555 13.1803 62.074 13.0119C61.8925 12.8435 61.7722 12.1587 61.4158 11.6206C61.0615 11.0846 60.4493 10.378 60.4777 9.73708C60.5061 9.09612 63.246 8.11827 64.1731 7.61731C65.3386 6.98728 64.9582 6.17132 65.3605 5.66817C65.601 5.36847 66.7599 4.72313 68.0085 4.26812C67.569 3.72559 67.6762 2.8965 67.7942 2.90744C67.9145 2.91838 68.8504 3.7781 69.1434 3.8131C69.2396 3.70591 68.8329 2.69962 68.7017 2.17241C68.6776 2.07397 68.6405 1.76333 68.8985 1.76552C69.1565 1.76989 69.9699 2.29054 69.9699 2.29054C70.9955 2.95556 71.1748 3.4259 71.7061 3.97717C71.9029 4.04936 72.0363 4.12811 72.1632 4.18936C72.36 4.28562 72.5896 4.50438 72.8148 4.75376V1.328C72.3796 1.12674 71.9226 0.923298 71.4656 0.746104C69.8978 0.190457 68.354 0.113892 67.8008 0.113892C67.3197 0.113892 65.9443 0.164206 64.5711 0.719853C63.4865 1.15081 62.52 1.90771 61.7503 2.81993C61.0747 3.57903 60.7379 4.21124 60.5433 4.58969C59.8458 6.03131 59.5068 7.87763 59.5068 9.47019C59.5068 13.5172 61.4617 15.8951 62.5681 16.8817C64.5952 18.704 67.077 18.7784 67.9211 18.7784C70.2848 18.7784 72.0188 17.9186 72.7907 17.5883V17.5664" fill="#404040"/>
<path d="M72.8128 15.4995C72.5985 15.2807 72.3601 15.0357 72.1174 14.7841C71.5292 14.1782 70.9213 13.5503 70.4884 13.1435C70.1429 12.7869 69.406 12.3034 68.8943 12.3034C68.8834 12.3034 68.8746 12.3034 68.8659 12.3034L68.75 12.3078C68.481 12.3165 68.2033 12.3253 67.9322 12.3997C67.2981 12.5747 66.8432 12.3887 66.5415 11.8287C66.4846 11.7237 66.3731 11.6362 66.255 11.6056C66.0101 11.5421 65.8505 11.389 65.7368 11.1068C65.6909 10.9952 65.6165 10.8837 65.5269 10.7962C65.2492 10.5249 65.236 10.4046 65.4416 10.0786C65.9052 9.34362 66.1501 8.68734 66.2113 8.00919C66.2878 7.15822 66.6814 6.49319 67.4161 5.97255C67.5758 5.85879 67.7485 5.74942 67.9147 5.64441C68.0721 5.54378 68.2317 5.44534 68.3848 5.33815L68.4439 5.29877L68.4679 5.23314C68.5707 4.95313 68.492 4.6075 68.2274 4.17435L68.2077 4.14592C67.9737 3.86809 67.9212 3.49183 67.93 3.25776C67.989 3.30151 68.0524 3.35182 68.1093 3.39776C68.5816 3.76746 68.9096 4.01247 69.1305 4.04091L69.2464 4.05404L69.3251 3.96653C69.4672 3.80903 69.395 3.56183 69.1436 2.80274C69.0627 2.55773 68.9796 2.30397 68.9337 2.12021C68.9227 2.07646 68.9205 2.02614 68.9249 1.99333C69.0561 2.01521 69.4738 2.23178 69.863 2.48116C70.5583 2.93181 70.8404 3.27963 71.14 3.64933C71.3499 3.90966 71.5686 4.17873 71.9294 4.48062L71.9556 4.50249L71.9884 4.51562C72.1655 4.58562 72.5416 4.7825 72.8193 4.95313V4.43249C72.5876 4.30123 72.3427 4.17873 72.1896 4.1131C71.8769 3.8484 71.6888 3.61433 71.4877 3.36495C71.1794 2.98431 70.8623 2.59273 70.1057 2.10271C69.8455 1.93427 69.207 1.54488 68.9162 1.5405C68.7828 1.53175 68.656 1.593 68.5772 1.69363C68.4285 1.88176 68.481 2.14865 68.5007 2.22521C68.551 2.42429 68.6363 2.6868 68.7216 2.94056C68.7675 3.07837 68.8243 3.25119 68.8702 3.40432C68.6997 3.28401 68.5073 3.13306 68.387 3.039C68.0371 2.76555 67.9409 2.69336 67.8316 2.68242C67.7922 2.67805 67.6501 2.68023 67.5648 2.8443C67.4336 3.10025 67.4183 3.88122 67.8556 4.41499C68.0087 4.66875 68.0787 4.87219 68.0634 5.01001C67.9365 5.09533 67.8075 5.17627 67.6785 5.2594C67.508 5.36659 67.3309 5.47815 67.1603 5.60066C66.3228 6.1935 65.8549 6.98978 65.7674 7.96544C65.7127 8.56921 65.4897 9.16424 65.0655 9.83582C64.744 10.3455 64.7834 10.6912 65.2164 11.1156C65.2623 11.1615 65.3016 11.2184 65.3235 11.2731C65.4919 11.6865 65.7587 11.9359 66.1479 12.0387C66.548 12.7781 67.2237 13.0581 68.0503 12.8284C68.2689 12.7672 68.5095 12.7606 68.7631 12.7519L68.8812 12.7475C69.1808 12.7388 69.8149 13.0844 70.1757 13.4585C70.6108 13.8654 71.2143 14.4888 71.7982 15.0926C72.1721 15.4776 72.5285 15.8451 72.815 16.1295V15.4929L72.8128 15.4995Z" fill="#404040"/>
<path d="M74.0918 0.547485V4.02575H77.7326L77.7304 18.3435H81.4214V3.97543H85.0622V0.547485H74.0918Z" fill="#404040"/>
<path d="M10.5593 2.73054C9.44851 1.09204 7.81071 0.637021 6.00235 0.536393C5.52129 0.512329 5.06209 0.512329 4.57884 0.512329H0V18.3105H3.68888V11.5553H4.91778C6.72613 11.5553 8.55855 11.5553 9.93176 10.1421C11.3793 8.68077 11.4996 6.88914 11.4996 6.05567C11.4996 4.34279 10.9442 3.284 10.5593 2.73054ZM6.41344 8.14919C6.00235 8.27607 5.64156 8.27607 5.18455 8.27607H3.71293V3.73902H5.25452C5.83398 3.73902 6.14667 3.78933 6.41344 3.83965C6.9448 3.99059 7.88506 4.52217 7.88506 6.03379C7.88506 6.51288 7.76479 7.74886 6.41344 8.15138V8.14919Z" fill="#404040"/>
<path d="M12.9951 0.512329V18.3105H22.6382V14.7557L16.684 14.7579V10.9493H22.518V7.4951H16.684V3.96653H22.6623V0.512329H12.9951Z" fill="#404040"/>
<path d="M37.2979 0.512329V18.3105H41.0108V10.8487H47.1837V7.37041H41.0108V3.89215H47.1837V0.512329H37.2979Z" fill="#404040"/>
<path d="M48.8232 0.512329V18.3105H58.4664V14.7579H52.5099V10.9493H58.3461V7.4951H52.5099V3.96653H58.4904V0.512329H48.8232Z" fill="#404040"/>
<path d="M91.1526 0.512329L91.1504 18.3105H94.8633V10.8487H101.038V7.36822L94.8633 7.37041V3.88996L101.038 3.89215V0.512329H91.1526Z" fill="#404040"/>
<path d="M106.606 0.512329H102.893V18.3105H106.606V0.512329Z" fill="#404040"/>
<path d="M108.317 0.512329V3.99059H111.958V18.3105H115.647V3.94028H119.288V0.512329H108.317Z" fill="#404040"/>
<path d="M31.7762 10.748C32.8368 10.4943 33.1757 10.3696 33.6568 10.0415C35.0081 9.1336 35.6094 7.39447 35.6094 5.78222C35.6094 5.30314 35.5613 3.99278 34.8157 2.80711C33.7289 1.04172 31.9446 0.612958 30.1122 0.536393C29.6552 0.512329 29.22 0.512329 28.763 0.512329H24.2061V18.3105H27.7987V10.7984L32.3076 18.3105H36.694L31.7762 10.748ZM29.1479 8.30232H27.8228V3.61214H29.0757C29.9679 3.63839 30.8841 3.71277 31.5095 4.46967C31.9665 5.02532 31.9905 5.67941 31.9905 5.93317C31.9905 6.56319 31.7981 6.96571 31.6778 7.19321C31.1224 8.20169 30.1362 8.27826 29.1457 8.30232H29.1479Z" fill="#404040"/>
<path d="M120.918 0.512207V0.717967H121.095V1.39873H121.334V0.717967H121.509V0.512207H120.918Z" fill="#404040"/>
<path d="M121.714 0.512565L121.576 1.39689H121.819L121.858 1.09263C121.867 1.0204 121.874 0.952541 121.882 0.884684C121.896 0.93284 121.911 0.980997 121.928 1.02915L122.047 1.39471H122.193L122.314 1.02915C122.331 0.978808 122.346 0.930652 122.359 0.882495C122.368 0.948163 122.377 1.01383 122.384 1.0795L122.423 1.39471H122.668L122.532 0.510376H122.272L122.18 0.801504C122.169 0.836527 122.158 0.869361 122.147 0.908762C122.138 0.93284 122.132 0.961297 122.123 0.987564C122.114 0.956919 122.106 0.928463 122.097 0.897817C122.088 0.864983 122.075 0.832149 122.068 0.799315L121.979 0.510376H121.712" fill="#404040"/>
</g>
<defs>
<clipPath id="clip0_3381_362">
<rect width="122.667" height="18.6667" fill="white" transform="translate(0 0.111938)"/>
</clipPath>
</defs>
</svg>
