<?xml version="1.0" encoding="utf-8"?>
<!-- Generator: Adobe Illustrator 28.0.0, SVG Export Plug-In . SVG Version: 6.00 Build 0)  -->
<svg version="1.1" id="Слой_1" xmlns="http://www.w3.org/2000/svg" xmlns:xlink="http://www.w3.org/1999/xlink" x="0px" y="0px"
	 viewBox="0 0 1537.7 1534.1" style="enable-background:new 0 0 1537.7 1534.1;" xml:space="preserve">
<style type="text/css">
	.st0{fill:url(#SVGID_1_);}
</style>
<radialGradient id="SVGID_1_" cx="768.8542" cy="767.0616" r="767.9584" gradientUnits="userSpaceOnUse">
	<stop  offset="0" style="stop-color:#FFFFFF;stop-opacity:0.5"/>
	<stop  offset="1" style="stop-color:#FFFFFF;stop-opacity:0"/>
</radialGradient>
<polygon class="st0" points="770.2,768.1 1528.1,646.7 1528.2,646.7 1513.8,577.3 1513.8,577.2 770.2,767.8 1467.2,446.3 
	1467.3,446.3 1434.7,383.4 1434.6,383.3 770,767.4 1354.4,269.9 1354.5,269.8 1306.1,217.9 769.7,767.2 1198.2,130.4 1198.3,130.3 
	1137.8,93.5 1137.7,93.4 769.4,767 1010.2,38.2 1010.3,38.1 942.1,19 942,18.9 769,766.9 804.3,0.1 804.3,0 733.4,0 768.7,766.9 
	595.8,19 595.7,18.9 527.6,38 527.4,38.1 768.3,767 400.1,93.5 400,93.4 339.5,130.2 339.4,130.3 768,767.2 231.7,218 231.6,217.9 
	183.2,269.8 767.7,767.4 103.2,383.4 103.1,383.3 70.5,446.2 70.4,446.3 767.6,767.8 24,577.2 23.9,577.2 9.5,646.5 9.5,646.7 
	767.5,768.1 0.1,785.3 0,785.3 4.8,855.9 4.8,856 767.5,768.5 33.2,992 33.1,992.1 56.8,1058.8 56.9,1058.9 767.6,768.9 
	120.9,1182.2 120.8,1182.3 161.6,1240.1 161.7,1240.2 767.8,769.2 256.6,1341.7 256.5,1341.8 311.5,1386.4 311.6,1386.5 
	768.1,769.4 430.3,1458.6 430.3,1458.7 495.2,1486.9 495.3,1487 768.5,769.6 629.1,1524.3 629.1,1524.5 699.3,1534.1 699.4,1534.1 
	768.9,769.6 838.3,1534 838.3,1534.1 908.5,1524.5 908.6,1524.5 769.2,769.6 1042.3,1486.9 1042.4,1487 1107.3,1458.8 
	1107.5,1458.7 769.6,769.4 1226.1,1386.4 1226.2,1386.5 1281.1,1341.8 1281.2,1341.8 769.9,769.2 1375.9,1240.1 1376,1240.2 
	1416.9,1182.4 1416.9,1182.3 770.1,768.9 1480.7,1058.9 1480.8,1058.9 1504.6,992.2 1504.6,992.1 770.2,768.5 1532.7,856 
	1532.9,856 1537.7,785.4 1537.7,785.3 "/>
</svg>
